<svg width="39" height="40" viewBox="0 0 39 40" fill="none" xmlns="http://www.w3.org/2000/svg">
<path fill-rule="evenodd" clip-rule="evenodd" d="M27.2166 2.98618H26.6034C26.2853 2.98618 26.0276 2.72848 26.0276 2.41047C26.0276 2.09246 26.2853 1.83469 26.6034 1.83469H27.2166V1.22147C27.2166 0.903463 27.4743 0.645691 27.7923 0.645691C28.1104 0.645691 28.3681 0.903463 28.3681 1.22147V1.83461H28.9813C29.2994 1.83461 29.5571 2.09238 29.5571 2.41039C29.5571 2.7284 29.2994 2.98618 28.9813 2.98618H28.3681V3.59939C28.3681 3.9174 28.1104 4.17517 27.7923 4.17517C27.4743 4.17517 27.2166 3.9174 27.2166 3.59939V2.98618ZM3.30788 14.4817H3.92109V15.0949C3.92109 15.4129 4.17886 15.6707 4.49687 15.6707C4.81488 15.6707 5.07266 15.4129 5.07266 15.0949V14.4817H5.68587C6.00388 14.4817 6.26165 14.2239 6.26165 13.9059C6.26165 13.5879 6.00388 13.3301 5.68587 13.3301H5.07266V12.7169C5.07266 12.3989 4.81488 12.1411 4.49687 12.1411C4.17886 12.1411 3.92109 12.3989 3.92109 12.7169V13.3301H3.30788C2.98987 13.3301 2.7321 13.5879 2.7321 13.9059C2.7321 14.2239 2.98987 14.4817 3.30788 14.4817ZM35.9036 17.3995C35.9036 17.0815 35.6459 16.8237 35.3278 16.8237C35.0098 16.8237 34.7521 17.0815 34.7521 17.3995V18.0128H34.1389C33.8208 18.0128 33.5631 18.2706 33.5631 18.5886C33.5631 18.9066 33.8208 19.1644 34.1389 19.1644H34.7521V19.7776C34.7521 20.0956 35.0098 20.3534 35.3278 20.3534C35.6459 20.3534 35.9036 20.0956 35.9036 19.7776V19.1644H36.5168C36.8349 19.1644 37.0926 18.9066 37.0926 18.5886C37.0926 18.2706 36.8349 18.0128 36.5168 18.0128H35.9036V17.3995ZM9.06051 11.0911L13.239 19.3285C12.4807 19.6546 11.9484 20.4088 11.9484 21.2851C11.9484 22.459 12.9034 23.414 14.0772 23.414H28.4504C29.6243 23.414 30.5793 22.459 30.5793 21.2851C30.5793 20.4088 30.0469 19.6547 29.2887 19.3286L31.8223 14.3343L31.8224 14.3341L33.4674 11.0911C34.8176 11.0509 35.9038 9.94086 35.9038 8.58116C35.9038 7.19606 34.7769 6.0692 33.3918 6.0692C32.0067 6.0692 30.8799 7.19606 30.8799 8.58116C30.8799 8.90371 30.9416 9.21195 31.0529 9.49548L26.6359 13.529C26.5857 13.575 26.5051 13.564 26.4698 13.5039L23.6909 8.76248C23.6663 8.72057 23.6729 8.667 23.7068 8.6323L24.592 7.72601C25.0293 7.2782 25.0696 6.5677 24.6857 6.07337L22.1961 2.86682C21.9709 2.57685 21.6313 2.41045 21.2641 2.41045C20.8969 2.41045 20.5572 2.57685 20.332 2.86682L17.8424 6.07337C17.4586 6.56777 17.4989 7.2782 17.9362 7.72601L18.8215 8.63245C18.8553 8.66708 18.8618 8.72065 18.8373 8.76255L16.0584 13.5038C16.0232 13.5639 15.9428 13.5751 15.8922 13.529L11.4753 9.49541C11.5865 9.2118 11.6482 8.90364 11.6482 8.58108C11.6482 7.19599 10.5214 6.06913 9.13628 6.06913C7.75119 6.06913 6.62418 7.19606 6.62418 8.58116C6.62418 9.94086 7.71035 11.0509 9.06051 11.0911ZM28.0849 19.1563L30.7952 13.8135L30.7953 13.8134L32.3015 10.8439C32.0875 10.7403 31.8905 10.6071 31.7154 10.4499L27.4124 14.3793C26.8201 14.9201 25.8812 14.7768 25.4763 14.0861L22.6973 9.3447C22.4111 8.85651 22.4874 8.23269 22.8829 7.82769L23.768 6.92155C23.8055 6.88306 23.809 6.82214 23.776 6.7797L21.2864 3.57316L21.2863 3.57306C21.283 3.56896 21.2776 3.56217 21.2639 3.56217C21.25 3.56217 21.2446 3.56907 21.2414 3.57316L18.7518 6.7797C18.7188 6.82214 18.7223 6.88313 18.7598 6.92155L19.645 7.82792C20.0405 8.23276 20.1168 8.85658 19.8305 9.34492L17.0516 14.0862C16.6459 14.7784 15.7064 14.9192 15.1154 14.3794L10.8125 10.45C10.6375 10.6072 10.4404 10.7405 10.2263 10.844L14.4428 19.1563H28.0849ZM33.3917 7.22069C34.1419 7.22069 34.7521 7.83095 34.7521 8.58108C34.7521 9.33113 34.1419 9.94139 33.3917 9.94139C32.6416 9.94139 32.0313 9.33113 32.0313 8.58108C32.0313 7.83095 32.6416 7.22069 33.3917 7.22069ZM28.4506 22.2625H14.0773C13.5384 22.2625 13.1 21.8241 13.1 21.2851C13.1 20.7462 13.5384 20.3078 14.0773 20.3078H14.0875L14.0897 20.308L14.0923 20.3078H28.4356L28.4381 20.308L28.4403 20.3078H28.4505C28.9894 20.3078 29.4278 20.7462 29.4278 21.2851C29.4279 21.824 28.9895 22.2625 28.4506 22.2625ZM9.13613 7.22069C9.88626 7.22069 10.4965 7.83095 10.4965 8.58108C10.4965 9.33113 9.88626 9.94139 9.13613 9.94139C8.386 9.94139 7.77574 9.33113 7.77574 8.58108C7.77574 7.83095 8.386 7.22069 9.13613 7.22069ZM34.182 27.8745C35.5022 27.2534 36.7177 27.511 37.4348 28.5648C38.1138 29.5627 37.9452 30.9196 37.0427 31.7211C37.0195 31.7416 36.9948 31.7603 36.9685 31.7768L26.525 38.3944C25.4454 39.0787 24.1989 39.4404 22.9205 39.4404H14.5796C13.7749 39.4404 12.9844 39.2981 12.2304 39.0174L6.65513 36.9422V37.0774C6.65513 37.9812 5.91985 38.7164 5.01613 38.7164H2.45C1.54628 38.7164 0.811005 37.9812 0.811005 37.0774V29.2568V28.6966V24.0582C0.811005 23.1544 1.54628 22.4192 2.45 22.4192H5.01606C5.91978 22.4192 6.65506 23.1544 6.65506 24.0582V24.3796C8.69117 24.3967 10.6936 24.9467 12.4521 25.9754C12.5587 26.0378 12.6609 26.098 12.7594 26.1561C13.7933 26.7656 14.4293 27.1406 15.622 27.3105L21.8064 28.0224C21.8113 28.023 21.8163 28.0236 21.8212 28.0244C23.436 28.2529 24.6766 29.5459 24.838 31.1689C24.8401 31.1892 24.841 31.2096 24.8408 31.23L24.8353 31.99L34.182 27.8745ZM1.96257 28.6966V29.2568V37.0774C1.96257 37.3462 2.18124 37.5648 2.45 37.5648H5.01613C5.28489 37.5648 5.50357 37.3462 5.50357 37.0774V24.0582C5.50357 23.7894 5.28489 23.5707 5.01613 23.5707H2.45C2.18124 23.5707 1.96257 23.7894 1.96257 24.0582V28.6966ZM25.9087 37.4218L36.3091 30.8315C36.7529 30.41 36.8292 29.7218 36.4827 29.2128C35.9925 28.4921 35.2248 28.6552 34.667 28.9191L34.6529 28.9255L24.4851 33.4025L24.4829 33.4033C24.4091 33.4356 24.3266 33.4513 24.2531 33.4513H17.9308C17.6128 33.4513 17.355 33.1935 17.355 32.8755C17.355 32.5575 17.6128 32.2997 17.9308 32.2997H23.6815L23.6891 31.254C23.5689 30.1766 22.7418 29.3208 21.667 29.1656L15.4829 28.4536C15.4806 28.4533 15.4783 28.4531 15.4761 28.4528C15.4734 28.4524 15.4708 28.4521 15.4681 28.4516C14.0482 28.2507 13.2754 27.7958 12.1602 27.1393C12.0663 27.0841 11.97 27.0274 11.8707 26.9693C10.2886 26.0439 8.48712 25.5483 6.65513 25.5312V35.7134L12.6321 37.9381C13.2572 38.1708 13.9125 38.2888 14.5796 38.2888H22.9205C23.9803 38.2888 25.0136 37.989 25.9087 37.4218Z" fill="#656565"/>
<path d="M27.2166 2.98618H27.4666V2.73618H27.2166V2.98618ZM27.2166 1.83469V2.08469H27.4666V1.83469H27.2166ZM28.3681 1.83461H28.1181V2.08461H28.3681V1.83461ZM28.3681 2.98618V2.73618H28.1181V2.98618H28.3681ZM3.92109 14.4817H4.17109V14.2317H3.92109V14.4817ZM5.07266 14.4817V14.2317H4.82266V14.4817H5.07266ZM5.07266 13.3301H4.82266V13.5801H5.07266V13.3301ZM3.92109 13.3301V13.5801H4.17109V13.3301H3.92109ZM34.7521 18.0128V18.2628H35.0021V18.0128H34.7521ZM34.7521 19.1644H35.0021V18.9144H34.7521V19.1644ZM35.9036 19.1644V18.9144H35.6536V19.1644H35.9036ZM35.9036 18.0128H35.6536V18.2628H35.9036V18.0128ZM13.239 19.3285L13.3377 19.5581L13.5824 19.4529L13.4619 19.2154L13.239 19.3285ZM9.06051 11.0911L9.28347 10.978L9.21632 10.8457L9.06796 10.8413L9.06051 11.0911ZM29.2887 19.3286L29.0658 19.2155L28.9453 19.453L29.19 19.5582L29.2887 19.3286ZM31.8223 14.3343L31.5996 14.2206L31.5993 14.2212L31.8223 14.3343ZM31.8224 14.3341L32.045 14.4478L32.0453 14.4472L31.8224 14.3341ZM33.4674 11.0911L33.46 10.8413L33.3116 10.8457L33.2445 10.978L33.4674 11.0911ZM31.0529 9.49548L31.2215 9.68009L31.3485 9.56416L31.2856 9.40413L31.0529 9.49548ZM26.6359 13.529L26.4674 13.3444L26.4671 13.3446L26.6359 13.529ZM26.4698 13.5039L26.2542 13.6303L26.2542 13.6304L26.4698 13.5039ZM23.6909 8.76248L23.4752 8.88885L23.4752 8.88889L23.6909 8.76248ZM23.7068 8.6323L23.5279 8.45761L23.5279 8.45769L23.7068 8.6323ZM24.592 7.72601L24.7709 7.90069L24.7709 7.90067L24.592 7.72601ZM24.6857 6.07337L24.4883 6.22669L24.4883 6.2267L24.6857 6.07337ZM22.1961 2.86682L22.3936 2.71351L22.3936 2.71348L22.1961 2.86682ZM20.332 2.86682L20.1346 2.71348L20.1346 2.7135L20.332 2.86682ZM17.8424 6.07337L17.6449 5.92005L17.6449 5.92007L17.8424 6.07337ZM17.9362 7.72601L17.7573 7.90067L17.7573 7.90068L17.9362 7.72601ZM18.8215 8.63245L18.6426 8.80713L18.6427 8.80726L18.8215 8.63245ZM18.8373 8.76255L19.053 8.88896L19.053 8.88893L18.8373 8.76255ZM16.0584 13.5038L15.8427 13.3774L15.8426 13.3776L16.0584 13.5038ZM15.8922 13.529L15.7237 13.7136L15.7237 13.7136L15.8922 13.529ZM11.4753 9.49541L11.2425 9.40413L11.1798 9.56412L11.3067 9.68001L11.4753 9.49541ZM30.7952 13.8135L30.5724 13.7001L30.5723 13.7004L30.7952 13.8135ZM28.0849 19.1563V19.4063H28.2384L28.3079 19.2694L28.0849 19.1563ZM30.7953 13.8134L31.0181 13.9267L31.0183 13.9265L30.7953 13.8134ZM32.3015 10.8439L32.5245 10.957L32.6397 10.7298L32.4104 10.6189L32.3015 10.8439ZM31.7154 10.4499L31.8824 10.2639L31.714 10.1126L31.5468 10.2653L31.7154 10.4499ZM27.4124 14.3793L27.5809 14.5639L27.5809 14.5639L27.4124 14.3793ZM25.4763 14.0861L25.2606 14.2125L25.2606 14.2126L25.4763 14.0861ZM22.6973 9.3447L22.913 9.21828L22.913 9.21827L22.6973 9.3447ZM22.8829 7.82769L22.704 7.653L22.704 7.65303L22.8829 7.82769ZM23.768 6.92155L23.9468 7.09624L23.9471 7.09602L23.768 6.92155ZM23.776 6.7797L23.5786 6.93302L23.5786 6.93307L23.776 6.7797ZM21.2864 3.57316L21.4839 3.41982L21.4812 3.41653L21.2864 3.57316ZM21.2863 3.57306L21.0907 3.7288L21.0914 3.72969L21.2863 3.57306ZM21.2414 3.57316L21.0441 3.4197L21.044 3.41984L21.2414 3.57316ZM18.7518 6.7797L18.9492 6.93307L18.9492 6.93302L18.7518 6.7797ZM18.7598 6.92155L18.5809 7.09619L18.5809 7.09623L18.7598 6.92155ZM19.645 7.82792L19.4662 8.0026L19.4662 8.00261L19.645 7.82792ZM19.8305 9.34492L19.6148 9.2185L19.6148 9.21851L19.8305 9.34492ZM17.0516 14.0862L16.8359 13.9598V13.9598L17.0516 14.0862ZM15.1154 14.3794L15.284 14.1948L15.284 14.1948L15.1154 14.3794ZM10.8125 10.45L10.9811 10.2654L10.8139 10.1127L10.6454 10.264L10.8125 10.45ZM10.2263 10.844L10.1175 10.6189L9.8881 10.7298L10.0034 10.9571L10.2263 10.844ZM14.4428 19.1563L14.2199 19.2694L14.2893 19.4063H14.4428V19.1563ZM14.0875 20.3078L14.1048 20.0584L14.0962 20.0578H14.0875V20.3078ZM14.0897 20.308L14.0724 20.5574L14.0884 20.5585L14.1045 20.5575L14.0897 20.308ZM14.0923 20.3078V20.0578H14.0849L14.0775 20.0583L14.0923 20.3078ZM28.4356 20.3078L28.4503 20.0583L28.443 20.0578H28.4356V20.3078ZM28.4381 20.308L28.4234 20.5575L28.4394 20.5585L28.4555 20.5574L28.4381 20.308ZM28.4403 20.3078V20.0578H28.4317L28.423 20.0584L28.4403 20.3078ZM29.4278 21.2851H29.1778V21.2852L29.4278 21.2851ZM37.4348 28.5648L37.2281 28.7055L37.2281 28.7055L37.4348 28.5648ZM34.182 27.8745L34.2828 28.1034L34.2884 28.1007L34.182 27.8745ZM37.0427 31.7211L37.2085 31.9082L37.2087 31.908L37.0427 31.7211ZM36.9685 31.7768L36.8348 31.5656L36.8347 31.5657L36.9685 31.7768ZM26.525 38.3944L26.3912 38.1833L26.3912 38.1833L26.525 38.3944ZM12.2304 39.0174L12.3176 38.7831L12.3176 38.7831L12.2304 39.0174ZM6.65513 36.9422L6.74234 36.7079L6.40513 36.5824V36.9422H6.65513ZM6.65506 24.3796H6.40506V24.6276L6.65296 24.6296L6.65506 24.3796ZM12.4521 25.9754L12.5783 25.7596L12.5783 25.7596L12.4521 25.9754ZM12.7594 26.1561L12.6325 26.3715H12.6325L12.7594 26.1561ZM15.622 27.3105L15.5867 27.5581L15.5934 27.5588L15.622 27.3105ZM21.8064 28.0224L21.837 27.7743L21.835 27.774L21.8064 28.0224ZM21.8212 28.0244L21.7832 28.2715L21.7862 28.2719L21.8212 28.0244ZM24.838 31.1689L24.5892 31.1936L24.5893 31.1939L24.838 31.1689ZM24.8408 31.23L24.5908 31.2281L24.5908 31.2282L24.8408 31.23ZM24.8353 31.99L24.5853 31.9882L24.5825 32.3745L24.936 32.2188L24.8353 31.99ZM36.3091 30.8315L36.4429 31.0426L36.4635 31.0296L36.4813 31.0127L36.3091 30.8315ZM25.9087 37.4218L25.7748 37.2106L25.7748 37.2106L25.9087 37.4218ZM36.4827 29.2128L36.276 29.3534L36.276 29.3534L36.4827 29.2128ZM34.667 28.9191L34.7709 29.1465L34.7739 29.1451L34.667 28.9191ZM34.6529 28.9255L34.7537 29.1543L34.7568 29.1529L34.6529 28.9255ZM24.4851 33.4025L24.5741 33.6365L24.5859 33.6313L24.4851 33.4025ZM24.4829 33.4033L24.394 33.1694L24.3831 33.1742L24.4829 33.4033ZM23.6815 32.2997V32.5497H23.9297L23.9315 32.3016L23.6815 32.2997ZM23.6891 31.254L23.9391 31.2558L23.9392 31.241L23.9376 31.2262L23.6891 31.254ZM21.667 29.1656L21.7028 28.918L21.6956 28.9172L21.667 29.1656ZM15.4829 28.4536L15.4523 28.7017L15.4543 28.702L15.4829 28.4536ZM15.4761 28.4528L15.4439 28.7007L15.444 28.7007L15.4761 28.4528ZM15.4681 28.4516L15.5062 28.2045L15.5031 28.2041L15.4681 28.4516ZM12.1602 27.1393L12.287 26.9239L12.1602 27.1393ZM11.8707 26.9693L11.7445 27.1851L11.7445 27.1851L11.8707 26.9693ZM6.65513 25.5312L6.65746 25.2812L6.40513 25.2789V25.5312H6.65513ZM6.65513 35.7134H6.40513V35.8871L6.56792 35.9477L6.65513 35.7134ZM12.6321 37.9381L12.7193 37.7038L12.7193 37.7038L12.6321 37.9381ZM26.6034 3.23618H27.2166V2.73618H26.6034V3.23618ZM25.7776 2.41047C25.7776 2.86659 26.1473 3.23618 26.6034 3.23618V2.73618C26.4234 2.73618 26.2776 2.59037 26.2776 2.41047H25.7776ZM26.6034 1.58469C26.1473 1.58469 25.7776 1.95439 25.7776 2.41047H26.2776C26.2776 2.23053 26.4234 2.08469 26.6034 2.08469V1.58469ZM27.2166 1.58469H26.6034V2.08469H27.2166V1.58469ZM26.9666 1.22147V1.83469H27.4666V1.22147H26.9666ZM27.7923 0.395691C27.3363 0.395691 26.9666 0.765392 26.9666 1.22147H27.4666C27.4666 1.04153 27.6124 0.895691 27.7923 0.895691V0.395691ZM28.6181 1.22147C28.6181 0.765392 28.2484 0.395691 27.7923 0.395691V0.895691C27.9723 0.895691 28.1181 1.04153 28.1181 1.22147H28.6181ZM28.6181 1.83461V1.22147H28.1181V1.83461H28.6181ZM28.9813 1.58461H28.3681V2.08461H28.9813V1.58461ZM29.8071 2.41039C29.8071 1.95431 29.4374 1.58461 28.9813 1.58461V2.08461C29.1613 2.08461 29.3071 2.23045 29.3071 2.41039H29.8071ZM28.9813 3.23618C29.4374 3.23618 29.8071 2.86647 29.8071 2.41039H29.3071C29.3071 2.59033 29.1613 2.73618 28.9813 2.73618V3.23618ZM28.3681 3.23618H28.9813V2.73618H28.3681V3.23618ZM28.6181 3.59939V2.98618H28.1181V3.59939H28.6181ZM27.7923 4.42517C28.2484 4.42517 28.6181 4.05547 28.6181 3.59939H28.1181C28.1181 3.77933 27.9723 3.92517 27.7923 3.92517V4.42517ZM26.9666 3.59939C26.9666 4.05547 27.3363 4.42517 27.7923 4.42517V3.92517C27.6124 3.92517 27.4666 3.77933 27.4666 3.59939H26.9666ZM26.9666 2.98618V3.59939H27.4666V2.98618H26.9666ZM3.92109 14.2317H3.30788V14.7317H3.92109V14.2317ZM4.17109 15.0949V14.4817H3.67109V15.0949H4.17109ZM4.49687 15.4207C4.31693 15.4207 4.17109 15.2749 4.17109 15.0949H3.67109C3.67109 15.551 4.04079 15.9207 4.49687 15.9207V15.4207ZM4.82266 15.0949C4.82266 15.2749 4.67681 15.4207 4.49687 15.4207V15.9207C4.95295 15.9207 5.32266 15.551 5.32266 15.0949H4.82266ZM4.82266 14.4817V15.0949H5.32266V14.4817H4.82266ZM5.68587 14.2317H5.07266V14.7317H5.68587V14.2317ZM6.01165 13.9059C6.01165 14.0859 5.86581 14.2317 5.68587 14.2317V14.7317C6.14195 14.7317 6.51165 14.362 6.51165 13.9059H6.01165ZM5.68587 13.5801C5.86581 13.5801 6.01165 13.726 6.01165 13.9059H6.51165C6.51165 13.4498 6.14195 13.0801 5.68587 13.0801V13.5801ZM5.07266 13.5801H5.68587V13.0801H5.07266V13.5801ZM4.82266 12.7169V13.3301H5.32266V12.7169H4.82266ZM4.49687 12.3911C4.67681 12.3911 4.82266 12.537 4.82266 12.7169H5.32266C5.32266 12.2608 4.95295 11.8911 4.49687 11.8911V12.3911ZM4.17109 12.7169C4.17109 12.537 4.31693 12.3911 4.49687 12.3911V11.8911C4.04079 11.8911 3.67109 12.2608 3.67109 12.7169H4.17109ZM4.17109 13.3301V12.7169H3.67109V13.3301H4.17109ZM3.30788 13.5801H3.92109V13.0801H3.30788V13.5801ZM2.9821 13.9059C2.9821 13.726 3.12794 13.5801 3.30788 13.5801V13.0801C2.8518 13.0801 2.4821 13.4498 2.4821 13.9059H2.9821ZM3.30788 14.2317C3.12794 14.2317 2.9821 14.0859 2.9821 13.9059H2.4821C2.4821 14.362 2.8518 14.7317 3.30788 14.7317V14.2317ZM35.3278 17.0737C35.5078 17.0737 35.6536 17.2196 35.6536 17.3995H36.1536C36.1536 16.9434 35.7839 16.5737 35.3278 16.5737V17.0737ZM35.0021 17.3995C35.0021 17.2196 35.1479 17.0737 35.3278 17.0737V16.5737C34.8718 16.5737 34.5021 16.9434 34.5021 17.3995H35.0021ZM35.0021 18.0128V17.3995H34.5021V18.0128H35.0021ZM34.1389 18.2628H34.7521V17.7628H34.1389V18.2628ZM33.8131 18.5886C33.8131 18.4087 33.9589 18.2628 34.1389 18.2628V17.7628C33.6828 17.7628 33.3131 18.1325 33.3131 18.5886H33.8131ZM34.1389 18.9144C33.9589 18.9144 33.8131 18.7685 33.8131 18.5886H33.3131C33.3131 19.0447 33.6828 19.4144 34.1389 19.4144V18.9144ZM34.7521 18.9144H34.1389V19.4144H34.7521V18.9144ZM35.0021 19.7776V19.1644H34.5021V19.7776H35.0021ZM35.3278 20.1034C35.1479 20.1034 35.0021 19.9575 35.0021 19.7776H34.5021C34.5021 20.2337 34.8718 20.6034 35.3278 20.6034V20.1034ZM35.6536 19.7776C35.6536 19.9575 35.5078 20.1034 35.3278 20.1034V20.6034C35.7839 20.6034 36.1536 20.2337 36.1536 19.7776H35.6536ZM35.6536 19.1644V19.7776H36.1536V19.1644H35.6536ZM36.5168 18.9144H35.9036V19.4144H36.5168V18.9144ZM36.8426 18.5886C36.8426 18.7685 36.6968 18.9144 36.5168 18.9144V19.4144C36.9729 19.4144 37.3426 19.0447 37.3426 18.5886H36.8426ZM36.5168 18.2628C36.6968 18.2628 36.8426 18.4087 36.8426 18.5886H37.3426C37.3426 18.1325 36.9729 17.7628 36.5168 17.7628V18.2628ZM35.9036 18.2628H36.5168V17.7628H35.9036V18.2628ZM35.6536 17.3995V18.0128H36.1536V17.3995H35.6536ZM13.4619 19.2154L9.28347 10.978L8.83756 11.2042L13.016 19.4416L13.4619 19.2154ZM12.1984 21.2851C12.1984 20.5125 12.6677 19.8463 13.3377 19.5581L13.1402 19.0988C12.2938 19.4629 11.6984 20.305 11.6984 21.2851H12.1984ZM14.0772 23.164C13.0415 23.164 12.1984 22.321 12.1984 21.2851H11.6984C11.6984 22.5971 12.7653 23.664 14.0772 23.664V23.164ZM28.4504 23.164H14.0772V23.664H28.4504V23.164ZM30.3293 21.2851C30.3293 22.3209 29.4862 23.164 28.4504 23.164V23.664C29.7623 23.664 30.8293 22.597 30.8293 21.2851H30.3293ZM29.19 19.5582C29.86 19.8464 30.3293 20.5125 30.3293 21.2851H30.8293C30.8293 20.305 30.2339 19.4629 29.3875 19.0989L29.19 19.5582ZM31.5993 14.2212L29.0658 19.2155L29.5117 19.4417L32.0452 14.4474L31.5993 14.2212ZM31.5997 14.2204L31.5996 14.2206L32.0449 14.448L32.045 14.4478L31.5997 14.2204ZM33.2445 10.978L31.5994 14.221L32.0453 14.4472L33.6904 11.2042L33.2445 10.978ZM35.6538 8.58116C35.6538 9.80511 34.6756 10.805 33.46 10.8413L33.4749 11.341C34.9596 11.2968 36.1538 10.0766 36.1538 8.58116H35.6538ZM33.3918 6.3192C34.6388 6.3192 35.6538 7.33414 35.6538 8.58116H36.1538C36.1538 7.05799 34.915 5.8192 33.3918 5.8192V6.3192ZM31.1299 8.58116C31.1299 7.33414 32.1448 6.3192 33.3918 6.3192V5.8192C31.8687 5.8192 30.6299 7.05799 30.6299 8.58116H31.1299ZM31.2856 9.40413C31.1854 9.14883 31.1299 8.87153 31.1299 8.58116H30.6299C30.6299 8.93589 30.6978 9.27506 30.8202 9.58684L31.2856 9.40413ZM26.8045 13.7136L31.2215 9.68009L30.8843 9.31087L26.4674 13.3444L26.8045 13.7136ZM26.2542 13.6304C26.3711 13.8297 26.6389 13.8653 26.8048 13.7134L26.4671 13.3446C26.5325 13.2847 26.6391 13.2982 26.6855 13.3774L26.2542 13.6304ZM23.4752 8.88889L26.2542 13.6303L26.6855 13.3775L23.9066 8.63606L23.4752 8.88889ZM23.5279 8.45769C23.4154 8.57291 23.3936 8.7497 23.4752 8.88885L23.9066 8.6361C23.939 8.69145 23.9304 8.76109 23.8857 8.80691L23.5279 8.45769ZM24.4132 7.55132L23.5279 8.45761L23.8856 8.80699L24.7709 7.90069L24.4132 7.55132ZM24.4883 6.2267C24.7955 6.62238 24.7632 7.19287 24.4131 7.55134L24.7709 7.90067C25.2954 7.36353 25.3437 6.51301 24.8832 5.92004L24.4883 6.2267ZM21.9987 3.02014L24.4883 6.22669L24.8832 5.92005L22.3936 2.71351L21.9987 3.02014ZM21.2641 2.66045C21.554 2.66045 21.8208 2.79113 21.9987 3.02016L22.3936 2.71348C22.1211 2.36256 21.7085 2.16045 21.2641 2.16045V2.66045ZM20.5295 3.02016C20.7073 2.79113 20.9742 2.66045 21.2641 2.66045V2.16045C20.8196 2.16045 20.4071 2.36256 20.1346 2.71348L20.5295 3.02016ZM18.0398 6.22669L20.5295 3.02014L20.1346 2.7135L17.6449 5.92005L18.0398 6.22669ZM18.115 7.55134C17.765 7.19287 17.7326 6.62244 18.0398 6.22667L17.6449 5.92007C17.1845 6.5131 17.2328 7.36353 17.7573 7.90067L18.115 7.55134ZM19.0003 8.45777L18.115 7.55133L17.7573 7.90068L18.6426 8.80713L19.0003 8.45777ZM19.053 8.88893C19.1343 8.75017 19.1132 8.57317 19.0002 8.45764L18.6427 8.80726C18.5975 8.76098 18.5894 8.69113 18.6216 8.63617L19.053 8.88893ZM16.2741 13.6302L19.053 8.88896L18.6216 8.63614L15.8427 13.3774L16.2741 13.6302ZM15.7237 13.7136C15.89 13.8655 16.1575 13.8295 16.2742 13.6301L15.8426 13.3776C15.889 13.2984 15.9955 13.2848 16.0608 13.3444L15.7237 13.7136ZM11.3067 9.68001L15.7237 13.7136L16.0608 13.3444L11.6438 9.3108L11.3067 9.68001ZM11.3982 8.58108C11.3982 8.87145 11.3427 9.1487 11.2425 9.40413L11.708 9.58669C11.8303 9.27489 11.8982 8.93582 11.8982 8.58108H11.3982ZM9.13628 6.31913C10.3833 6.31913 11.3982 7.33406 11.3982 8.58108H11.8982C11.8982 7.05792 10.6594 5.81913 9.13628 5.81913V6.31913ZM6.87418 8.58116C6.87418 7.33415 7.88925 6.31913 9.13628 6.31913V5.81913C7.61313 5.81913 6.37418 7.05798 6.37418 8.58116H6.87418ZM9.06796 10.8413C7.85233 10.805 6.87418 9.80511 6.87418 8.58116H6.37418C6.37418 10.0766 7.56837 11.2968 9.05307 11.341L9.06796 10.8413ZM30.5723 13.7004L27.8619 19.0432L28.3079 19.2694L31.0182 13.9266L30.5723 13.7004ZM30.5725 13.7L30.5724 13.7001L31.018 13.9269L31.0181 13.9267L30.5725 13.7ZM32.0786 10.7308L30.5723 13.7003L31.0183 13.9265L32.5245 10.957L32.0786 10.7308ZM31.5484 10.6359C31.7406 10.8085 31.9571 10.9549 32.1926 11.0689L32.4104 10.6189C32.2179 10.5257 32.0404 10.4057 31.8824 10.2639L31.5484 10.6359ZM27.5809 14.5639L31.884 10.6345L31.5468 10.2653L27.2438 14.1947L27.5809 14.5639ZM25.2606 14.2126C25.7458 15.0402 26.871 15.212 27.5809 14.5639L27.2438 14.1947C26.7691 14.6281 26.0165 14.5133 25.6919 13.9597L25.2606 14.2126ZM22.4816 9.47111L25.2606 14.2125L25.6919 13.9597L22.913 9.21828L22.4816 9.47111ZM22.704 7.65303C22.2299 8.13861 22.1384 8.88571 22.4816 9.47113L22.913 9.21827C22.6838 8.8273 22.745 8.32676 23.0617 8.00235L22.704 7.65303ZM23.5892 6.74685L22.704 7.653L23.0617 8.00238L23.9468 7.09624L23.5892 6.74685ZM23.5786 6.93307C23.5348 6.8767 23.5396 6.79773 23.589 6.74708L23.9471 7.09602C24.0714 6.96838 24.0832 6.76757 23.9735 6.62634L23.5786 6.93307ZM21.0889 3.72648L23.5786 6.93302L23.9735 6.62638L21.4838 3.41984L21.0889 3.72648ZM21.0914 3.72969L21.0915 3.72979L21.4812 3.41653L21.4811 3.41643L21.0914 3.72969ZM21.2639 3.81217C21.2264 3.81217 21.1842 3.802 21.145 3.77712C21.1098 3.75476 21.0895 3.72732 21.0907 3.72879L21.4818 3.41732C21.4798 3.41469 21.4552 3.38181 21.413 3.35503C21.3669 3.32574 21.315 3.31217 21.2639 3.31217V3.81217ZM21.4388 3.72661C21.4397 3.72548 21.4195 3.75349 21.3839 3.7764C21.3443 3.80183 21.3016 3.81217 21.2639 3.81217V3.31217C21.2123 3.31217 21.1599 3.32596 21.1134 3.35586C21.0708 3.38324 21.0464 3.41675 21.0441 3.4197L21.4388 3.72661ZM18.9492 6.93302L21.4389 3.72648L21.044 3.41984L18.5543 6.62638L18.9492 6.93302ZM18.9387 6.7469C18.9883 6.79777 18.9929 6.8768 18.9492 6.93307L18.5543 6.62634C18.4447 6.76747 18.4562 6.96849 18.5809 7.09619L18.9387 6.7469ZM19.8239 7.65324L18.9386 6.74687L18.5809 7.09623L19.4662 8.0026L19.8239 7.65324ZM20.0462 9.47135C20.3894 8.88582 20.298 8.13869 19.8239 7.65323L19.4662 8.00261C19.7829 8.32683 19.8441 8.82734 19.6148 9.2185L20.0462 9.47135ZM17.2673 14.2126L20.0462 9.47134L19.6148 9.21851L16.8359 13.9598L17.2673 14.2126ZM14.9468 14.564C15.6551 15.2109 16.7811 15.0422 17.2673 14.2126L16.8359 13.9598C16.5108 14.5145 15.7578 14.6275 15.284 14.1948L14.9468 14.564ZM10.6439 10.6346L14.9468 14.564L15.284 14.1948L10.9811 10.2654L10.6439 10.6346ZM10.3352 11.069C10.5708 10.9551 10.7874 10.8086 10.9795 10.636L10.6454 10.264C10.4875 10.4058 10.31 10.5258 10.1175 10.6189L10.3352 11.069ZM14.6658 19.0432L10.4493 10.7309L10.0034 10.9571L14.2199 19.2694L14.6658 19.0432ZM28.0849 18.9063H14.4428V19.4063H28.0849V18.9063ZM35.0021 8.58108C35.0021 7.69288 34.2799 6.97069 33.3917 6.97069V7.47069C34.0038 7.47069 34.5021 7.96902 34.5021 8.58108H35.0021ZM33.3917 10.1914C34.2799 10.1914 35.0021 9.46921 35.0021 8.58108H34.5021C34.5021 9.19305 34.0038 9.69139 33.3917 9.69139V10.1914ZM31.7813 8.58108C31.7813 9.46921 32.5035 10.1914 33.3917 10.1914V9.69139C32.7797 9.69139 32.2813 9.19305 32.2813 8.58108H31.7813ZM33.3917 6.97069C32.5035 6.97069 31.7813 7.69288 31.7813 8.58108H32.2813C32.2813 7.96902 32.7797 7.47069 33.3917 7.47069V6.97069ZM14.0773 22.5125H28.4506V22.0125H14.0773V22.5125ZM12.85 21.2851C12.85 21.9621 13.4003 22.5125 14.0773 22.5125V22.0125C13.6765 22.0125 13.35 21.686 13.35 21.2851H12.85ZM14.0773 20.0578C13.4003 20.0578 12.85 20.6082 12.85 21.2851H13.35C13.35 20.8843 13.6765 20.5578 14.0773 20.5578V20.0578ZM14.0875 20.0578H14.0773V20.5578H14.0875V20.0578ZM14.107 20.0586L14.1048 20.0584L14.0702 20.5572L14.0724 20.5574L14.107 20.0586ZM14.0775 20.0583L14.0749 20.0584L14.1045 20.5575L14.1071 20.5574L14.0775 20.0583ZM28.4356 20.0578H14.0923V20.5578H28.4356V20.0578ZM28.4529 20.0584L28.4503 20.0583L28.4208 20.5574L28.4234 20.5575L28.4529 20.0584ZM28.423 20.0584L28.4208 20.0586L28.4555 20.5574L28.4577 20.5572L28.423 20.0584ZM28.4505 20.0578H28.4403V20.5578H28.4505V20.0578ZM29.6778 21.2851C29.6778 20.6082 29.1274 20.0578 28.4505 20.0578V20.5578C28.8513 20.5578 29.1778 20.8843 29.1778 21.2851H29.6778ZM28.4506 22.5125C29.1275 22.5125 29.6779 21.962 29.6778 21.2851L29.1778 21.2852C29.1778 21.686 28.8514 22.0125 28.4506 22.0125V22.5125ZM10.7465 8.58108C10.7465 7.69288 10.0243 6.97069 9.13613 6.97069V7.47069C9.74819 7.47069 10.2465 7.96902 10.2465 8.58108H10.7465ZM9.13613 10.1914C10.0243 10.1914 10.7465 9.46921 10.7465 8.58108H10.2465C10.2465 9.19305 9.7482 9.69139 9.13613 9.69139V10.1914ZM7.52574 8.58108C7.52574 9.46921 8.24794 10.1914 9.13613 10.1914V9.69139C8.52406 9.69139 8.02574 9.19305 8.02574 8.58108H7.52574ZM9.13613 6.97069C8.24793 6.97069 7.52574 7.69288 7.52574 8.58108H8.02574C8.02574 7.96902 8.52407 7.47069 9.13613 7.47069V6.97069ZM37.6415 28.4242C37.2494 27.848 36.7127 27.4799 36.0865 27.347C35.4635 27.2149 34.7737 27.3198 34.0756 27.6483L34.2884 28.1007C34.9105 27.8081 35.4886 27.7313 35.9827 27.8361C36.4735 27.9403 36.9031 28.2278 37.2281 28.7055L37.6415 28.4242ZM37.2087 31.908C38.2052 31.0231 38.3912 29.5259 37.6414 28.4242L37.2281 28.7055C37.8364 29.5994 37.6853 30.8161 36.8767 31.5342L37.2087 31.908ZM37.1022 31.9881C37.1398 31.9643 37.1753 31.9376 37.2085 31.9082L36.877 31.5339C36.8638 31.5456 36.8497 31.5562 36.8348 31.5656L37.1022 31.9881ZM26.6589 38.6056L37.1024 31.988L36.8347 31.5657L26.3912 38.1833L26.6589 38.6056ZM22.9205 39.6904C24.2463 39.6904 25.5392 39.3153 26.6589 38.6056L26.3912 38.1833C25.3516 38.8422 24.1515 39.1904 22.9205 39.1904V39.6904ZM14.5796 39.6904H22.9205V39.1904H14.5796V39.6904ZM12.1431 39.2516C12.9251 39.5428 13.7451 39.6904 14.5796 39.6904V39.1904C13.8046 39.1904 13.0437 39.0534 12.3176 38.7831L12.1431 39.2516ZM6.56793 37.1765L12.1431 39.2517L12.3176 38.7831L6.74234 36.7079L6.56793 37.1765ZM6.90513 37.0774V36.9422H6.40513V37.0774H6.90513ZM5.01613 38.9664C6.05792 38.9664 6.90513 38.1193 6.90513 37.0774H6.40513C6.40513 37.8431 5.78179 38.4664 5.01613 38.4664V38.9664ZM2.45 38.9664H5.01613V38.4664H2.45V38.9664ZM0.561005 37.0774C0.561005 38.1193 1.40822 38.9664 2.45 38.9664V38.4664C1.68435 38.4664 1.061 37.8431 1.061 37.0774H0.561005ZM0.561005 29.2568V37.0774H1.061V29.2568H0.561005ZM0.561005 28.6966V29.2568H1.061V28.6966H0.561005ZM0.561005 24.0582V28.6966H1.061V24.0582H0.561005ZM2.45 22.1692C1.40822 22.1692 0.561005 23.0163 0.561005 24.0582H1.061C1.061 23.2924 1.68435 22.6692 2.45 22.6692V22.1692ZM5.01606 22.1692H2.45V22.6692H5.01606V22.1692ZM6.90506 24.0582C6.90506 23.0163 6.05784 22.1692 5.01606 22.1692V22.6692C5.78171 22.6692 6.40506 23.2924 6.40506 24.0582H6.90506ZM6.90506 24.3796V24.0582H6.40506V24.3796H6.90506ZM12.5783 25.7596C10.7821 24.7088 8.73679 24.1471 6.65715 24.1297L6.65296 24.6296C8.64555 24.6463 10.6052 25.1846 12.3258 26.1912L12.5783 25.7596ZM12.8864 25.9408C12.7879 25.8827 12.6854 25.8222 12.5783 25.7596L12.3258 26.1911C12.432 26.2533 12.5339 26.3134 12.6325 26.3715L12.8864 25.9408ZM15.6573 27.063C14.5173 26.9006 13.9181 26.549 12.8864 25.9408L12.6325 26.3715C13.6684 26.9822 14.3412 27.3805 15.5868 27.558L15.6573 27.063ZM21.835 27.774L15.6506 27.0621L15.5934 27.5588L21.7778 28.2708L21.835 27.774ZM21.8592 27.7773C21.8499 27.7759 21.8413 27.7748 21.837 27.7743L21.7759 28.2705C21.7814 28.2712 21.7826 28.2714 21.7832 28.2715L21.8592 27.7773ZM25.0868 31.1441C24.914 29.4065 23.5851 28.0215 21.8562 27.7768L21.7862 28.2719C23.2869 28.4843 24.4392 29.6853 24.5892 31.1936L25.0868 31.1441ZM25.0908 31.2319C25.091 31.2028 25.0897 31.1734 25.0867 31.1438L24.5893 31.1939C24.5904 31.205 24.5909 31.2164 24.5908 31.2281L25.0908 31.2319ZM25.0853 31.9918L25.0908 31.2318L24.5908 31.2282L24.5853 31.9882L25.0853 31.9918ZM34.0812 27.6457L24.7345 31.7612L24.936 32.2188L34.2827 28.1033L34.0812 27.6457ZM2.21257 29.2568V28.6966H1.71257V29.2568H2.21257ZM2.21257 37.0774V29.2568H1.71257V37.0774H2.21257ZM2.45 37.3148C2.31932 37.3148 2.21257 37.2081 2.21257 37.0774H1.71257C1.71257 37.4842 2.04317 37.8148 2.45 37.8148V37.3148ZM5.01613 37.3148H2.45V37.8148H5.01613V37.3148ZM5.25357 37.0774C5.25357 37.2081 5.14682 37.3148 5.01613 37.3148V37.8148C5.42297 37.8148 5.75357 37.4842 5.75357 37.0774H5.25357ZM5.25357 24.0582V37.0774H5.75357V24.0582H5.25357ZM5.01613 23.8207C5.14682 23.8207 5.25357 23.9275 5.25357 24.0582H5.75357C5.75357 23.6513 5.42296 23.3207 5.01613 23.3207V23.8207ZM2.45 23.8207H5.01613V23.3207H2.45V23.8207ZM2.21257 24.0582C2.21257 23.9275 2.31931 23.8207 2.45 23.8207V23.3207C2.04317 23.3207 1.71257 23.6513 1.71257 24.0582H2.21257ZM2.21257 28.6966V24.0582H1.71257V28.6966H2.21257ZM36.1753 30.6203L25.7748 37.2106L26.0425 37.6329L36.4429 31.0426L36.1753 30.6203ZM36.276 29.3534C36.5533 29.7608 36.4923 30.3128 36.137 30.6502L36.4813 31.0127C37.0135 30.5073 37.1051 29.6828 36.6894 29.0721L36.276 29.3534ZM34.7739 29.1451C35.0359 29.0211 35.3237 28.9331 35.5876 28.9464C35.8364 28.959 36.0772 29.0612 36.276 29.3534L36.6894 29.0722C36.398 28.6437 36.0098 28.4671 35.6128 28.4471C35.2308 28.4278 34.8558 28.5532 34.5601 28.6931L34.7739 29.1451ZM34.7568 29.1529L34.7709 29.1465L34.5631 28.6917L34.549 28.6981L34.7568 29.1529ZM24.5859 33.6313L34.7537 29.1543L34.5522 28.6967L24.3844 33.1737L24.5859 33.6313ZM24.5718 33.637L24.574 33.6362L24.3963 33.1688L24.3941 33.1697L24.5718 33.637ZM24.2531 33.7013C24.3596 33.7013 24.4761 33.679 24.5828 33.6325L24.3831 33.1742C24.342 33.1921 24.2937 33.2013 24.2531 33.2013V33.7013ZM17.9308 33.7013H24.2531V33.2013H17.9308V33.7013ZM17.105 32.8755C17.105 33.3316 17.4747 33.7013 17.9308 33.7013V33.2013C17.7509 33.2013 17.605 33.0555 17.605 32.8755H17.105ZM17.9308 32.0497C17.4747 32.0497 17.105 32.4194 17.105 32.8755H17.605C17.605 32.6956 17.7509 32.5497 17.9308 32.5497V32.0497ZM23.6815 32.0497H17.9308V32.5497H23.6815V32.0497ZM23.4391 31.2521L23.4315 32.2979L23.9315 32.3016L23.9391 31.2558L23.4391 31.2521ZM21.6313 29.413C22.5933 29.552 23.3331 30.3174 23.4406 31.2817L23.9376 31.2262C23.8048 30.0359 22.8903 29.0897 21.7027 28.9181L21.6313 29.413ZM15.4543 28.702L21.6384 29.4139L21.6956 28.9172L15.5115 28.2053L15.4543 28.702ZM15.444 28.7007C15.4472 28.7011 15.4501 28.7015 15.4523 28.7017L15.5135 28.2055C15.5111 28.2052 15.5095 28.205 15.5081 28.2048L15.444 28.7007ZM15.4301 28.6987C15.4353 28.6995 15.4401 28.7002 15.4439 28.7007L15.5082 28.2048C15.5075 28.2047 15.507 28.2047 15.5067 28.2046C15.5065 28.2046 15.5064 28.2046 15.5063 28.2046C15.5062 28.2046 15.5062 28.2046 15.5062 28.2046L15.4301 28.6987ZM12.0333 27.3548C13.1517 28.0131 13.9609 28.4908 15.4331 28.6992L15.5031 28.2041C14.1356 28.0106 13.3991 27.5785 12.287 26.9239L12.0333 27.3548ZM11.7445 27.1851C11.8435 27.243 11.9394 27.2995 12.0333 27.3548L12.287 26.9239C12.1932 26.8687 12.0966 26.8118 11.9969 26.7535L11.7445 27.1851ZM6.65281 25.7812C8.44135 25.7978 10.2001 26.2817 11.7445 27.1851L11.997 26.7535C10.3771 25.806 8.53289 25.2987 6.65746 25.2812L6.65281 25.7812ZM6.90513 35.7134V25.5312H6.40513V35.7134H6.90513ZM12.7193 37.7038L6.74234 35.4791L6.56792 35.9477L12.5449 38.1724L12.7193 37.7038ZM14.5796 38.0388C13.9422 38.0388 13.3165 37.9262 12.7193 37.7038L12.5448 38.1724C13.1979 38.4155 13.8827 38.5388 14.5796 38.5388V38.0388ZM22.9205 38.0388H14.5796V38.5388H22.9205V38.0388ZM25.7748 37.2106C24.9198 37.7525 23.9329 38.0388 22.9205 38.0388V38.5388C24.0277 38.5388 25.1074 38.2255 26.0425 37.6329L25.7748 37.2106Z" fill="#656565"/>
</svg>
