<svg width="27" height="41" viewBox="0 0 27 41" fill="none" xmlns="http://www.w3.org/2000/svg">
<path fill-rule="evenodd" clip-rule="evenodd" d="M26.9427 8.40847L26.9425 8.40305C26.9423 8.39638 26.942 8.38971 26.9415 8.38304C26.9391 8.34943 26.9357 8.31643 26.9291 8.28373V8.28343C26.9224 8.25073 26.913 8.21833 26.9024 8.18684C26.8997 8.17897 26.897 8.1711 26.894 8.16323C26.8828 8.13325 26.87 8.10388 26.8555 8.07542L26.8531 8.07088C26.8373 8.04121 26.8192 8.01305 26.7995 7.9855C26.7961 7.98066 26.7926 7.97597 26.7891 7.97123L26.789 7.97114L26.7844 7.96491C26.7635 7.93766 26.7417 7.91132 26.7171 7.88679L19.7031 0.87277C19.6786 0.848246 19.6523 0.826446 19.625 0.805555L19.618 0.80034C19.6134 0.796841 19.6088 0.793343 19.6041 0.790113C19.5766 0.770433 19.5487 0.752267 19.5193 0.736825L19.5165 0.735447L19.5165 0.735444C19.5154 0.734944 19.5143 0.734462 19.5133 0.733798C19.4854 0.719265 19.4564 0.706851 19.427 0.695648C19.4188 0.692621 19.4109 0.689896 19.4025 0.687171C19.371 0.676574 19.3392 0.667188 19.3062 0.660527H19.3056C19.2732 0.654169 19.2402 0.650535 19.2069 0.648113L19.1942 0.647508L19.1814 0.646902L19.1709 0.646345C19.1656 0.646018 19.1604 0.645691 19.1551 0.645691H1.59401C1.16589 0.645691 0.818909 0.992668 0.818909 1.42079V34.5968C0.818909 35.0249 1.16589 35.3719 1.59401 35.3719H13.2635V39.5556C13.2635 39.8375 13.4167 40.0972 13.6634 40.2338C13.9105 40.3703 14.2117 40.3622 14.4506 40.2123L17.4027 38.3602L20.3547 40.2123C20.4803 40.291 20.6235 40.3307 20.7668 40.3307C20.8957 40.3307 21.025 40.2986 21.1419 40.2341C21.3887 40.0975 21.5419 39.8378 21.5419 39.5556V35.3719H26.1688C26.5969 35.3719 26.9439 35.0249 26.9439 34.5968V8.43481L26.9437 8.42626L26.9433 8.41903L26.9427 8.40847ZM19.9302 3.29222L24.2977 7.65972H19.9302V3.29222ZM12.8811 24.5862C12.8266 24.4381 12.7378 24.1962 12.7357 24.0972C12.7963 24.0221 13.0064 23.8892 13.1351 23.8081C13.4112 23.6337 13.7243 23.4357 13.9514 23.1262C14.1803 22.8138 14.2736 22.4529 14.3559 22.1346L14.3562 22.1337L14.3564 22.1328L14.3564 22.1327L14.3564 22.1327C14.3925 21.9933 14.4504 21.7693 14.5 21.6844C14.5272 21.6787 14.5845 21.6705 14.6919 21.6705C14.7782 21.6705 14.8748 21.6754 14.9771 21.6805L14.984 21.6808L14.9841 21.6808H14.9842L14.9843 21.6808C15.0995 21.6865 15.2183 21.6923 15.3423 21.6923C15.6214 21.6923 15.8467 21.6608 16.0511 21.5927C16.408 21.474 16.6936 21.2442 16.9455 21.0413L16.947 21.0401C17.0865 20.9279 17.3182 20.7416 17.399 20.7301C17.4871 20.7415 17.7172 20.9266 17.8568 21.0389L17.8598 21.0413C18.1117 21.2442 18.3976 21.474 18.7545 21.5927C18.9589 21.6608 19.1839 21.6923 19.4633 21.6923C19.5877 21.6923 19.7074 21.6864 19.8229 21.6808L19.8282 21.6805C19.9305 21.6754 20.0271 21.6705 20.1137 21.6705C20.2212 21.6705 20.2781 21.6784 20.3056 21.6844C20.3553 21.7695 20.4134 21.9945 20.4492 22.1337C20.5315 22.4523 20.6251 22.8135 20.8543 23.1262C21.0808 23.4354 21.3936 23.633 21.6698 23.8076L21.6705 23.8081L21.6776 23.8125C21.8064 23.8943 22.0101 24.0235 22.0696 24.0972C22.0675 24.1958 21.9796 24.4358 21.9253 24.5841L21.9253 24.5841L21.9253 24.5841L21.9246 24.5862C21.8092 24.9002 21.6787 25.2562 21.6787 25.6508C21.6787 26.0449 21.8089 26.4006 21.9239 26.7146L21.9243 26.7156C21.9788 26.8637 22.0675 27.1056 22.0696 27.2046C22.0101 27.2783 21.8064 27.4075 21.6776 27.4893L21.6705 27.4937C21.3941 27.6681 21.081 27.8661 20.8543 28.1756C20.6251 28.4883 20.5315 28.8495 20.4492 29.1681C20.4134 29.307 20.355 29.5323 20.3056 29.6174C20.2781 29.6231 20.2212 29.6313 20.1137 29.6313C20.0271 29.6313 19.9305 29.6265 19.8282 29.6213L19.8231 29.6211C19.7075 29.6154 19.5878 29.6095 19.4633 29.6095C19.1839 29.6095 18.9589 29.641 18.7545 29.7091C18.3982 29.8276 18.1127 30.0571 17.8611 30.2594L17.8598 30.2605C17.7227 30.3713 17.4938 30.5551 17.4027 30.5714C17.3115 30.5551 17.0829 30.3713 16.9458 30.2605L16.9422 30.2576C16.6909 30.0557 16.4064 29.8272 16.0511 29.7091C15.8467 29.641 15.6214 29.6095 15.3423 29.6095C15.2181 29.6095 15.0987 29.6154 14.983 29.621L14.9771 29.6213C14.8751 29.6265 14.7785 29.6313 14.6919 29.6313C14.5845 29.6313 14.5275 29.6231 14.5 29.6174C14.4504 29.5325 14.3925 29.3085 14.3564 29.1691L14.3564 29.1691L14.3564 29.169L14.3562 29.1681C14.2741 28.8495 14.1806 28.4883 13.9514 28.1756C13.7246 27.8661 13.4115 27.6681 13.1351 27.4937C13.0067 27.4126 12.7966 27.2797 12.736 27.2046C12.7381 27.106 12.8266 26.8644 12.8808 26.7162L12.8808 26.7162L12.8811 26.7156C12.9964 26.4016 13.1269 26.0456 13.1269 25.6511C13.1269 25.2571 12.9967 24.9018 12.8818 24.5883L12.8818 24.5883L12.8811 24.5862ZM19.9917 38.1543L19.9914 38.1542V31.1791C19.9093 31.177 19.8285 31.1736 19.75 31.1697C19.6474 31.1645 19.5505 31.1597 19.463 31.1597C19.3256 31.1597 19.2668 31.1724 19.2438 31.18C19.1521 31.2105 18.9755 31.3526 18.8331 31.4671L18.8317 31.4682C18.4699 31.7595 18.0197 32.1219 17.4027 32.1219C16.7856 32.1219 16.3354 31.7595 15.9736 31.4682L15.9722 31.4671C15.8298 31.3525 15.6532 31.2105 15.5612 31.1797C15.5385 31.1721 15.4797 31.1594 15.3423 31.1594C15.2548 31.1594 15.1579 31.1642 15.0553 31.1697C14.9768 31.1736 14.896 31.1766 14.8137 31.1791V38.1543L16.9906 36.7885C17.2425 36.6308 17.5628 36.6308 17.8147 36.7885L19.9914 38.1542V38.1543H19.9917ZM21.5419 33.8217V30.5545C21.7723 30.2414 21.8685 29.8708 21.95 29.5559C21.9927 29.3906 22.0511 29.1644 22.1044 29.0921C22.1573 29.0195 22.354 28.8952 22.4978 28.8044L22.4983 28.8041C22.8798 28.5631 23.3546 28.2631 23.5432 27.6957C23.7297 27.1359 23.5357 26.6071 23.3798 26.182L23.3798 26.182L23.3797 26.1818C23.3088 25.9889 23.2286 25.77 23.2286 25.6508C23.2286 25.5315 23.3088 25.3129 23.3797 25.12C23.5356 24.6949 23.7297 24.1657 23.5432 23.6058C23.3546 23.0387 22.8798 22.7387 22.4983 22.4977C22.3545 22.4068 22.1574 22.2821 22.1044 22.21C22.0511 22.1374 21.9927 21.9112 21.95 21.7459L21.95 21.7458C21.8385 21.3143 21.6999 20.7773 21.2252 20.4291C20.8473 20.1524 20.4098 20.1203 20.1134 20.1203C19.988 20.1203 19.8669 20.1264 19.75 20.1324C19.6474 20.1376 19.5505 20.1424 19.4633 20.1424C19.3256 20.1424 19.2668 20.1297 19.2441 20.1221C19.1521 20.0915 18.9746 19.9486 18.832 19.8336L18.8306 19.8324C18.4687 19.5417 18.0189 19.1802 17.4027 19.1802C16.786 19.1802 16.3356 19.5425 15.9738 19.8334L15.9736 19.8336L15.9693 19.837C15.8274 19.9512 15.6526 20.0919 15.5615 20.1221C15.5388 20.1297 15.4797 20.1424 15.3423 20.1424C15.2551 20.1424 15.1579 20.1376 15.0553 20.1321L15.0493 20.1318L15.049 20.1318L15.0489 20.1318C14.934 20.1262 14.8153 20.1203 14.6919 20.1203C14.3958 20.1203 13.9583 20.1524 13.5808 20.4291C13.1057 20.7773 12.9667 21.3144 12.8553 21.7459C12.8126 21.9112 12.7542 22.1374 12.7012 22.2097C12.6479 22.2821 12.4508 22.4068 12.307 22.4977C11.9255 22.7387 11.4511 23.0387 11.2621 23.6058C11.0757 24.1659 11.2696 24.6947 11.4256 25.1198L11.4256 25.12C11.4965 25.3129 11.5767 25.5315 11.5767 25.6508C11.5767 25.77 11.4965 25.9889 11.4256 26.1818L11.4256 26.182C11.2696 26.6071 11.0757 27.1359 11.2621 27.696C11.451 28.2629 11.9256 28.563 12.3067 28.8039L12.3067 28.804L12.307 28.8041C12.4511 28.895 12.6479 29.0197 12.7012 29.0921C12.7542 29.1644 12.8126 29.3906 12.8553 29.5559C12.9368 29.8708 13.0333 30.2417 13.2638 30.5545V33.8217H2.3691V2.19589H18.38V8.43481C18.38 8.86293 18.727 9.20991 19.1551 9.20991H25.3937V33.8217H21.5419ZM5.38145 9.20992H15.3675C15.7953 9.20992 16.1426 8.86294 16.1426 8.43482C16.1426 8.0067 15.7953 7.65972 15.3675 7.65972H5.38145C4.95333 7.65972 4.60635 8.0067 4.60635 8.43482C4.60635 8.86294 4.95363 9.20992 5.38145 9.20992ZM5.38145 11.5722H22.4681C22.8963 11.5722 23.2432 11.9191 23.2432 12.3473C23.2432 12.7754 22.8963 13.1224 22.4681 13.1224H5.38145C4.95333 13.1224 4.60635 12.7754 4.60635 12.3473C4.60635 11.9191 4.95333 11.5722 5.38145 11.5722ZM19.3677 15.4846H5.38145C4.95333 15.4846 4.60635 15.8319 4.60635 16.2597C4.60635 16.6878 4.95333 17.0348 5.38145 17.0348H19.3677C19.7959 17.0348 20.1428 16.6878 20.1428 16.2597C20.1428 15.8319 19.7959 15.4846 19.3677 15.4846ZM21.693 16.2597C21.693 15.8328 22.0412 15.4846 22.4681 15.4846C22.8953 15.4846 23.2432 15.8328 23.2432 16.2597C23.2432 16.6866 22.8953 17.0348 22.4681 17.0348C22.0412 17.0348 21.693 16.6866 21.693 16.2597Z" fill="#656565"/>
</svg>
