<svg width="31" height="41" viewBox="0 0 31 41" fill="none" xmlns="http://www.w3.org/2000/svg">
<path d="M19.413 10.851L23.6923 5.94459C23.78 5.84409 23.8369 5.72048 23.8561 5.58853C23.8754 5.45657 23.8563 5.32186 23.8011 5.20048C23.792 5.18024 23.7765 5.16436 23.7658 5.14531C23.7642 5.13497 23.7607 5.12501 23.7554 5.11594L21.1238 0.96834C21.0612 0.869518 20.9745 0.788131 20.872 0.731726C20.7694 0.675322 20.6543 0.645729 20.5373 0.645691H10.0117C9.89468 0.645729 9.77956 0.675322 9.67702 0.731726C9.57448 0.788131 9.48784 0.869518 9.42515 0.96834L6.79356 5.11594C6.78978 5.12337 6.78749 5.13146 6.78681 5.13976C6.77247 5.15925 6.75922 5.17952 6.74713 5.20048C6.6919 5.32186 6.67278 5.45657 6.69207 5.58853C6.71135 5.72048 6.76821 5.84409 6.85587 5.94459L11.136 10.851C7.65181 11.8489 4.64552 14.0722 2.67088 17.1113C0.696235 20.1505 -0.113755 23.8008 0.390099 27.3899C0.893952 30.979 2.67771 34.2652 5.41283 36.6432C8.14794 39.0211 11.6502 40.3307 15.2745 40.3307C18.8988 40.3307 22.4011 39.0211 25.1362 36.6432C27.8713 34.2652 29.655 30.979 30.1589 27.3899C30.6628 23.8008 29.8528 20.1505 27.8781 17.1113C25.9035 14.0722 22.8972 11.8489 19.413 10.851ZM16.8223 11.7106L18.4292 6.18271H21.6437L16.8223 11.7106ZM16.5373 2.03471H19.2757L17.9057 4.19165L16.5373 2.03471ZM16.6429 4.79369H13.9045L15.2745 2.63675L16.6429 4.79369ZM12.6433 4.19165L11.2745 2.03471H14.0129L12.6433 4.19165ZM16.981 6.18271L15.2745 12.0515L13.568 6.18271H16.981ZM15.2745 15.2339C17.2657 15.2339 19.2122 15.8243 20.8679 16.9304C22.5235 18.0366 23.814 19.609 24.576 21.4486C25.3381 23.2882 25.5375 25.3124 25.1491 27.2654C24.7607 29.2183 23.8019 31.0122 22.3939 32.4203C20.9859 33.8283 19.1921 34.7872 17.2391 35.1757C15.2862 35.5642 13.2619 35.3648 11.4223 34.6028C9.58265 33.8408 8.01028 32.5505 6.90403 30.8948C5.79777 29.2392 5.2073 27.2927 5.2073 25.3015C5.21066 22.6325 6.27238 20.0738 8.1596 18.1865C10.0468 16.2992 12.6055 15.2374 15.2745 15.2339ZM21.9057 4.79369H19.1673L20.5357 2.63675L21.9057 4.79369ZM10.0117 2.63675L11.3801 4.79369H8.64174L10.0117 2.63675ZM12.1218 6.18271L13.7287 11.7106L8.90725 6.18271H12.1218ZM15.2745 38.9429C11.9286 38.9425 8.69946 37.7124 6.20126 35.4865C3.70306 33.2607 2.11001 30.1944 1.72505 26.8707C1.34009 23.5469 2.19007 20.1976 4.11336 17.4597C6.03664 14.7218 8.89909 12.7862 12.1564 12.0209L13.8295 13.9406C10.9397 14.308 8.29844 15.7625 6.44294 18.0081C4.58744 20.2538 3.6571 23.122 3.84118 26.0292C4.02526 28.9365 5.30993 31.6644 7.43386 33.6581C9.55779 35.6518 12.3614 36.7615 15.2745 36.7615C18.1876 36.7615 20.9912 35.6518 23.1151 33.6581C25.2391 31.6644 26.5237 28.9365 26.7078 26.0292C26.8919 23.122 25.9616 20.2538 24.1061 18.0081C22.2506 15.7625 19.6093 14.308 16.7195 13.9406L18.3926 12.0221C21.6488 12.7884 24.5098 14.7243 26.4321 17.4619C28.3543 20.1994 29.2038 23.5479 28.8189 26.8707C28.434 30.1936 26.8417 33.2592 24.3445 35.4849C21.8474 37.7106 18.6196 38.9412 15.2745 38.9429Z" fill="#656565"/>
</svg>
