<svg width="36" height="30" viewBox="0 0 36 30" fill="none" xmlns="http://www.w3.org/2000/svg">
<path d="M33.9782 21.4955H2.30541C1.31208 21.4955 0.503906 20.6877 0.503906 19.6945V2.66386C0.503906 1.67075 1.31208 0.862793 2.30541 0.862793H33.9782C34.9712 0.862793 35.7795 1.67075 35.7795 2.66386V19.6945C35.7795 20.6877 34.9712 21.4955 33.9782 21.4955ZM2.30541 2.31766C2.11434 2.31766 1.95863 2.47294 1.95863 2.66386V19.6945C1.95863 19.8854 2.11434 20.0408 2.30541 20.0408H33.9782C34.1692 20.0408 34.3247 19.8854 34.3247 19.6945V2.66386C34.3247 2.47294 34.1693 2.31766 33.9782 2.31766H2.30541Z" fill="#656565"/>
<path d="M14.3759 16.7072C14.137 16.5766 13.9816 16.333 13.9816 16.0609V6.29755C13.9816 6.02528 14.1338 5.77598 14.3759 5.65107C14.6177 5.52624 14.9089 5.54704 15.1307 5.70485L21.9957 10.5865C22.1877 10.723 22.3015 10.9438 22.3015 11.1793C22.3015 11.4147 22.1877 11.6356 21.9957 11.7721C21.9957 11.7721 16.8467 15.4331 15.1307 16.6536C15.0053 16.7428 14.735 16.9038 14.3759 16.7072ZM15.4366 7.70742V14.651L20.3189 11.1793L15.4366 7.70742Z" fill="#656565"/>
<path d="M35.0522 25.6247H21.1485C20.8257 24.3879 19.6989 23.4726 18.3624 23.4726C17.026 23.4726 15.8995 24.3879 15.5765 25.6247H1.2313C0.829666 25.6247 0.503906 25.9505 0.503906 26.3521C0.503906 26.7539 0.829666 27.0795 1.2313 27.0795H15.5766C15.8995 28.3163 17.0261 29.2317 18.3624 29.2317C19.6989 29.2317 20.8257 28.3162 21.1486 27.0795H35.0522C35.4535 27.0795 35.7795 26.7539 35.7795 26.3521C35.7795 25.9505 35.4535 25.6247 35.0522 25.6247ZM18.3624 27.7768C17.5771 27.7768 16.9378 27.1377 16.9378 26.352C16.9378 25.5665 17.5771 24.9275 18.3624 24.9275C19.148 24.9275 19.7871 25.5665 19.7871 26.352C19.7871 27.1377 19.148 27.7768 18.3624 27.7768Z" fill="#656565"/>
</svg>
